<svg id="b92e9303-d639-4352-b758-5c09ac70a335" data-name="Capa 1" xmlns="http://www.w3.org/2000/svg" viewBox="0 0 158.04 211.94"><defs><style>.b2605b38-5720-4519-bcbd-1a2247e835a4,.bbf932bf-cfa4-4993-a029-af05944360c5{font-size:85.59px;}.bbf932bf-cfa4-4993-a029-af05944360c5,.e37a56b1-e73d-4134-8579-e046e0f03093{stroke:#000;stroke-miterlimit:10;stroke-width:3px;}.bbf932bf-cfa4-4993-a029-af05944360c5{font-family:AmaticSC-Bold, Amatic SC;font-weight:700;}.b2605b38-5720-4519-bcbd-1a2247e835a4{font-family:AmaticSC-Regular, Amatic SC;}.e30fc498-007e-4e85-bae5-619ad0bf0944{fill:#fff;}</style></defs><title>catfinderlogo</title><text class="bbf932bf-cfa4-4993-a029-af05944360c5" transform="translate(1.5 85.06)">Cat</text><text class="b2605b38-5720-4519-bcbd-1a2247e835a4" transform="translate(1.5 161.72)">FIND<tspan class="e37a56b1-e73d-4134-8579-e046e0f03093" x="110.15" y="0">ER</tspan></text><path d="M115.24,65.17c.88,7,5.21,20.74,5.9,24.4s-.92,11.7-3,11.78-3.5.39-4.25,2.14-.8,2.74,2.28,3.5,4.22,1.84,6.06.82,4-7.94,5.42-8.91,2.42-1.14,2.33,1.28-2.51,8.1-1.86,9.43a4.8,4.8,0,0,0,4.58,3c2.76,0,3.69-.24,4.26-2.25s1-7.37,1.72-9.89,1.66-6.36,3.49-6.71a3.74,3.74,0,0,1,4.2,3.27c.18,2.14.07,5.34,1.59,6.15s4,1.59,5.29.81,1.8-1.46,1.4-3-2.35-2.4-2-4,4.85-8.8,6.74-12,1.82-6.67,2.64-7.52,3.76-5.11,4-8.61-.12-9.55-2-12.86,7-25.15,8.72-30.51,2.47-9.76-.52-10.39-4.64,9.5-5.65,12.76S158,49.11,156.35,48.82c-2.63-.13-14.14-2.12-15.11-3,0-4.21-.58-8.74-4.59-11.54-.11-.3.38-3.76.39-5.75s-.08-3.67-.56-4.09-3.6,3.15-4.66,4.51-2,1.43-2.9,2-1.36.54-3.08.52-2.68.42-3.76-.65-4.43-4.48-6.06-4-1.6,6.37-1,8.69-1.18,3.61-1,8.35,1.9,8.53,2.12,9.79S114.35,58.15,115.24,65.17Z" transform="translate(-24.2 -15.1)"/><path class="e30fc498-007e-4e85-bae5-619ad0bf0944" d="M123.92,39.7s.85-2,2.67-1.64a3.83,3.83,0,0,1,2.53,2.32,2,2,0,0,1-2.5,1.34A4.44,4.44,0,0,1,123.92,39.7Z" transform="translate(-24.2 -15.1)"/><path class="e30fc498-007e-4e85-bae5-619ad0bf0944" d="M134.4,39.68s-.83-2.23.47-2.59a1.94,1.94,0,0,1,1.91.27s1.09,1.51.35,2.32S134.4,39.68,134.4,39.68Z" transform="translate(-24.2 -15.1)"/><path d="M127.7,39.73a2.45,2.45,0,0,1-.58,1.57,2,2,0,0,1-.22-3A2.45,2.45,0,0,1,127.7,39.73Z" transform="translate(-24.2 -15.1)"/><path d="M136.21,38.59a1.83,1.83,0,0,1-.43,1.15,1.77,1.77,0,0,1-.58-1.08,1.8,1.8,0,0,1,.43-1.15A1.77,1.77,0,0,1,136.21,38.59Z" transform="translate(-24.2 -15.1)"/></svg>