<svg id="b0e65c46-cef0-41c8-b78d-814850363950" data-name="Capa 1" xmlns="http://www.w3.org/2000/svg" viewBox="0 0 38.45 69.06"><defs><style>.e7b6613b-79df-4603-b5ec-8f2e0fa763b9{fill:#fff;}</style></defs><title>favicon</title><path d="M14,32.55c1.39,4.54,5.82,13.11,6.7,15.46s.73,7.83-.66,8.13-2.27.66-2.56,1.9-.22,1.91,1.9,2.05,3,.74,4.1-.14,1.76-5.72,2.57-6.52,1.46-1,1.68.58-.73,5.64-.15,6.45A3.21,3.21,0,0,0,31,61.92c1.84-.29,2.42-.58,2.57-2s-.22-5,0-6.74.37-4.4,1.54-4.84a2.51,2.51,0,0,1,3.15,1.69c.36,1.39.66,3.51,1.76,3.88s2.85.59,3.59-.07,1-1.18.58-2.13-1.83-1.32-1.76-2.42,2.2-6.37,3.08-8.71.44-4.62.88-5.28A12.4,12.4,0,0,0,48,29.18c-.22-2.35-1.17-6.3-2.78-8.28S47,3.47,47.52-.27,48-7,46-7.08,44-.27,43.71,2s-3.26,15-4.39,15c-1.76.22-9.6.22-10.33-.22-.52-2.79-1.4-5.72-4.36-7.11-.11-.18-.19-2.53-.41-3.84s-.47-2.42-.84-2.64-2,2.49-2.56,3.52S19.65,7.9,19.13,8.37s-.84.52-2,.7-1.73.59-2.57,0-3.44-2.45-4.47-2-.33,4.4.33,5.86-.36,2.53.3,5.64a27,27,0,0,0,2.52,6.23C13.57,25.63,12.61,28,14,32.55Z" transform="translate(-9.6 7.08)"/><path class="e7b6613b-79df-4603-b5ec-8f2e0fa763b9" d="M16.83,14.71s.33-1.43,1.57-1.39a2.58,2.58,0,0,1,1.94,1.24,1.37,1.37,0,0,1-1.5,1.18A3,3,0,0,1,16.83,14.71Z" transform="translate(-9.6 7.08)"/><path class="e7b6613b-79df-4603-b5ec-8f2e0fa763b9" d="M23.75,13.5s-.8-1.38,0-1.77a1.3,1.3,0,0,1,1.3,0s.9.87.5,1.49S23.75,13.5,23.75,13.5Z" transform="translate(-9.6 7.08)"/><path d="M19.33,14.29a1.69,1.69,0,0,1-.21,1.11,1.61,1.61,0,0,1-.69-.88,1.65,1.65,0,0,1,.2-1.11A1.65,1.65,0,0,1,19.33,14.29Z" transform="translate(-9.6 7.08)"/><path d="M24.82,12.57a1.21,1.21,0,0,1-.15.81,1.23,1.23,0,0,1-.51-.65,1.28,1.28,0,0,1,.15-.81A1.19,1.19,0,0,1,24.82,12.57Z" transform="translate(-9.6 7.08)"/></svg>